#tb 0: 1/1200000
#media_type 0: video
#codec_id 0: rawvideo
#dimensions 0: 1024x768
#sar 0: 0/1
#tb 1: 1/1200000
#media_type 1: video
#codec_id 1: rawvideo
#dimensions 1: 1024x768
#sar 1: 0/1
0,          0,          0,        0,  1179648, 0x4b39cdfe
1,          0,          0,        0,  1179648, 0x1afcd2a3
0,          1,          1,        0,  1179648, 0xef0da64e
1,          1,          1,        0,  1179648, 0x2bb1d07b
0,          2,          2,        0,  1179648, 0x9dd9e5a7
1,          2,          2,        0,  1179648, 0xcc0547f2
0,          3,          3,        0,  1179648, 0xee948285
1,          3,          3,        0,  1179648, 0x3375f14b
0,          4,          4,        0,  1179648, 0x75117927
1,          4,          4,        0,  1179648, 0x1e059655
0,          5,          5,        0,  1179648, 0xad9fec31
1,          5,          5,        0,  1179648, 0xfed7ef37
0,          6,          6,        0,  1179648, 0x53cd0f53
1,          6,          6,        0,  1179648, 0xa725f316
0,          7,          7,        0,  1179648, 0xcbda04b5
1,          7,          7,        0,  1179648, 0xd13b99db
0,          8,          8,        0,  1179648, 0x71861302
1,          8,          8,        0,  1179648, 0x911d2c79
0,          9,          9,        0,  1179648, 0x5d2564dd
1,          9,          9,        0,  1179648, 0x70fa087a
0,         10,         10,        0,  1179648, 0xcfa6d394
1,         10,         10,        0,  1179648, 0x69a27b84
0,         11,         11,        0,  1179648, 0x18fe7393
1,         11,         11,        0,  1179648, 0xcc665fd1
0,         12,         12,        0,  1179648, 0xb329d489
1,         12,         12,        0,  1179648, 0xf8d93bbf
0,         13,         13,        0,  1179648, 0x3b029004
1,         13,         13,        0,  1179648, 0x39655020
0,         14,         14,        0,  1179648, 0x6c81bf8e
1,         14,         14,        0,  1179648, 0x13da6f67
0,         15,         15,        0,  1179648, 0x25e3e0a9
1,         15,         15,        0,  1179648, 0xdc372a0f
0,         16,         16,        0,  1179648, 0x8f2c789f
1,         16,         16,        0,  1179648, 0xba8a3e23
0,         17,         17,        0,  1179648, 0x372b866f
1,         17,         17,        0,  1179648, 0x27d31b48
0,         18,         18,        0,  1179648, 0x5cfc8119
1,         18,         18,        0,  1179648, 0x50aca559
0,         19,         19,        0,  1179648, 0x593af76c
1,         19,         19,        0,  1179648, 0x27c0e522
0,         20,         20,        0,  1179648, 0x852864b7
1,         20,         20,        0,  1179648, 0xa8739c77
0,         21,         21,        0,  1179648, 0x71f4b961
1,         21,         21,        0,  1179648, 0x27c16037
0,         22,         22,        0,  1179648, 0x6c5ebb84
1,         22,         22,        0,  1179648, 0x74a6ede9
0,         23,         23,        0,  1179648, 0xb5467da9
1,         23,         23,        0,  1179648, 0x1ea455b9
0,         24,         24,        0,  1179648, 0x92d58478
1,         24,         24,        0,  1179648, 0x9e464f3a
0,         25,         25,        0,  1179648, 0xa6181655
1,         25,         25,        0,  1179648, 0x8af4fd5b
0,         26,         26,        0,  1179648, 0x15e9ee9a
1,         26,         26,        0,  1179648, 0xa6ed4580
0,         27,         27,        0,  1179648, 0x4782abf9
1,         27,         27,        0,  1179648, 0x73fc62e6
0,         28,         28,        0,  1179648, 0x8c06f337
1,         28,         28,        0,  1179648, 0xb2d3dfbf
0,         29,         29,        0,  1179648, 0x2e6b1a88
1,         29,         29,        0,  1179648, 0x2066f08e
0,         30,         30,        0,  1179648, 0x584eac3e
1,         30,         30,        0,  1179648, 0xa0bfb75b
0,         31,         31,        0,  1179648, 0x9a2dae49
1,         31,         31,        0,  1179648, 0x89445161
0,         32,         32,        0,  1179648, 0x3a50c6f4
1,         32,         32,        0,  1179648, 0x9befaa17
0,         33,         33,        0,  1179648, 0x1afcbfd6
1,         33,         33,        0,  1179648, 0xb243de65
0,         34,         34,        0,  1179648, 0xfdda4e8c
1,         34,         34,        0,  1179648, 0xf945451a
0,         35,         35,        0,  1179648, 0x8fffa546
1,         35,         35,        0,  1179648, 0x06b20109
0,         36,         36,        0,  1179648, 0xbc2c9dfc
1,         36,         36,        0,  1179648, 0x344c1ed8
0,         37,         37,        0,  1179648, 0xb2d08414
1,         37,         37,        0,  1179648, 0xccd35195
0,         38,         38,        0,  1179648, 0x54886d31
1,         38,         38,        0,  1179648, 0x653ed9df
0,         39,         39,        0,  1179648, 0x07c3b249
1,         39,         39,        0,  1179648, 0xf92b9e88
0,         40,         40,        0,  1179648, 0x073b9491
1,         40,         40,        0,  1179648, 0x4ed7ee12
0,         41,         41,        0,  1179648, 0xcd669799
1,         41,         41,        0,  1179648, 0xa7faed20
0,         42,         42,        0,  1179648, 0xd21b0a28
1,         42,         42,        0,  1179648, 0xb34d0f7f
0,         43,         43,        0,  1179648, 0xb4b820c9
1,         43,         43,        0,  1179648, 0xf496d13d
0,         44,         44,        0,  1179648, 0x2d2940d0
1,         44,         44,        0,  1179648, 0x985d67f5
0,         45,         45,        0,  1179648, 0x919c554a
1,         45,         45,        0,  1179648, 0x697d0b66
0,         46,         46,        0,  1179648, 0x7dd28f61
1,         46,         46,        0,  1179648, 0x504d6971
0,         47,         47,        0,  1179648, 0x51af9760
1,         47,         47,        0,  1179648, 0x956d7fb1
0,         48,         48,        0,  1179648, 0x8801beba
1,         48,         48,        0,  1179648, 0xec62570e
0,         49,         49,        0,  1179648, 0x80b37318
1,         49,         49,        0,  1179648, 0x48284486
0,         50,         50,        0,  1179648, 0x91c52522
1,         50,         50,        0,  1179648, 0xe3a72477
0,         51,         51,        0,  1179648, 0x6721373b
1,         51,         51,        0,  1179648, 0x9fb05dfa
0,         52,         52,        0,  1179648, 0xd2a250ca
1,         52,         52,        0,  1179648, 0xbd294daf
0,         53,         53,        0,  1179648, 0x6005c976
1,         53,         53,        0,  1179648, 0x7f311bbb
0,         54,         54,        0,  1179648, 0x2d42f334
1,         54,         54,        0,  1179648, 0x3bea1741
0,         55,         55,        0,  1179648, 0xd696879d
1,         55,         55,        0,  1179648, 0x9b3259fd
0,         56,         56,        0,  1179648, 0x3324c463
1,         56,         56,        0,  1179648, 0xc90f475d
0,         57,         57,        0,  1179648, 0x824c47df
1,         57,         57,        0,  1179648, 0x0effe63f
0,         58,         58,        0,  1179648, 0x06abf15f
1,         58,         58,        0,  1179648, 0x646ee426
0,         59,         59,        0,  1179648, 0x34ef0c34
1,         59,         59,        0,  1179648, 0x0fe901c7
0,         60,         60,        0,  1179648, 0x54a6ef58
1,         60,         60,        0,  1179648, 0xb726f458
0,         61,         61,        0,  1179648, 0x4e9c7db9
1,         61,         61,        0,  1179648, 0xf28adc7e
0,         62,         62,        0,  1179648, 0x70887af9
1,         62,         62,        0,  1179648, 0x00258e2f
0,         63,         63,        0,  1179648, 0x661779d7
1,         63,         63,        0,  1179648, 0x4598b8f7
